<svg xmlns="http://www.w3.org/2000/svg" viewBox="0 0 5127 2226" width="5127" height="2226"><path d="M774 0V-202H1052V0ZM1052 0V-202Q1061 -202 1066.5 -174.5Q1072 -147 1072 -102Q1072 -56 1066.5 -28.0Q1061 0 1052 0ZM488 343Q383 343 300.0 305.5Q217 268 159.0 202.0Q101 136 70.5 48.5Q40 -39 40 -140Q40 -193 49.0 -247.0Q58 -301 73 -349L235 -318Q224 -270 219.0 -228.0Q214 -186 214 -151Q214 -55 248.0 10.0Q282 75 343.0 108.0Q404 141 486 141Q570 141 632.0 107.5Q694 74 728.5 11.0Q763 -52 763 -141V-519L936 -493V-141Q936 -40 905.5 48.0Q875 136 817.0 202.0Q759 268 675.5 305.5Q592 343 488 343ZM717 0Q628 0 561.5 -37.0Q495 -74 458.5 -135.5Q422 -197 422 -271Q422 -331 444.5 -381.0Q467 -431 508.0 -468.5Q549 -506 602.5 -527.0Q656 -548 718 -548Q778 -548 835.0 -530.5Q892 -513 936 -493L866 -314Q779 -355 718 -355Q680 -355 653.0 -343.5Q626 -332 611.0 -313.5Q596 -295 596 -275Q596 -257 609.5 -240.5Q623 -224 650.0 -213.0Q677 -202 717 -202H881V0ZM805 -637Q772 -637 750.5 -658.0Q729 -679 729 -712Q729 -746 750.5 -767.5Q772 -789 805 -789Q839 -789 860.0 -767.5Q881 -746 881 -712Q881 -679 860.0 -658.0Q839 -637 805 -637ZM631 -637Q598 -637 576.5 -658.0Q555 -679 555 -712Q555 -746 576.5 -767.5Q598 -789 631 -789Q665 -789 686.5 -767.5Q708 -746 708 -712Q708 -679 686.5 -658.0Q665 -637 631 -637ZM1207 -525H1381V0H1052V-202H1207ZM1052 0Q1043 0 1037.5 -28.0Q1032 -56 1032 -102Q1032 -147 1037.5 -174.5Q1043 -202 1052 -202ZM1528 291V89H1699Q1771 89 1797.5 68.5Q1824 48 1824 11V-493H1997V11Q1997 97 1960.5 160.0Q1924 223 1857.0 257.0Q1790 291 1699 291ZM1778 0Q1688 0 1622.0 -37.0Q1556 -74 1519.5 -135.5Q1483 -197 1483 -271Q1483 -331 1506.0 -381.0Q1529 -431 1569.5 -468.5Q1610 -506 1663.5 -527.0Q1717 -548 1779 -548Q1839 -548 1896.0 -530.5Q1953 -513 1997 -493L1927 -314Q1843 -364 1779 -364Q1741 -364 1714.0 -350.0Q1687 -336 1672.0 -314.5Q1657 -293 1657 -270Q1657 -249 1670.5 -229.0Q1684 -209 1711.0 -196.5Q1738 -184 1778 -184H1942V0Z" fill="#0A2E1F" transform="translate(2856.92,1663.0)"/><path d="M4151.92 743.0Q4183.92 743.0 4204.42 763.5Q4224.92 784.0 4224.92 815.0Q4224.92 848.0 4204.42 868.5Q4183.92 889.0 4151.92 889.0Q4119.92 889.0 4098.92 868.5Q4077.92 848.0 4077.92 815.0Q4077.92 784.0 4098.92 763.5Q4119.92 743.0 4151.92 743.0ZM4238.92 896.0Q4271.92 896.0 4293.42 917.0Q4314.92 938.0 4314.92 971.0Q4314.92 1004.0 4293.42 1026.0Q4271.92 1048.0 4238.92 1048.0Q4205.92 1048.0 4184.42 1026.0Q4162.92 1004.0 4162.92 971.0Q4162.92 938.0 4184.42 917.0Q4205.92 896.0 4238.92 896.0ZM4064.92 896.0Q4097.92 896.0 4119.92 917.0Q4141.92 938.0 4141.92 971.0Q4141.92 1004.0 4119.92 1026.0Q4097.92 1048.0 4064.92 1048.0Q4031.92 1048.0 4010.42 1026.0Q3988.92 1004.0 3988.92 971.0Q3988.92 938.0 4010.42 917.0Q4031.92 896.0 4064.92 896.0Z" fill="#C9A24A"/><polyline points="3952,448 4037,578 4122,487 4207,578 4382,279" fill="none" stroke="#C9A24A" stroke-width="118" stroke-linecap="round" stroke-linejoin="round"/><path d="M105.42 0.0 9.24 -294.0H79.8L163.38 -33.6H128.1L215.45999999999998 -294.0H278.46L362.46 -33.6H328.44L414.12 -294.0H479.21999999999997L383.03999999999996 0.0H309.96L235.62 -228.48H254.94L178.5 0.0ZM594.72 0.0 725.76 -294.0H792.96L924.4200000000001 0.0H853.02L745.5 -259.56H772.38L664.44 0.0ZM660.24 -63.0 678.3 -114.66H829.5L847.98 -63.0ZM1127.28 0.0V-238.56H1033.2V-294.0H1289.4V-238.56H1195.32V0.0ZM1653.54 0.0V-294.0H1721.58V0.0ZM1451.9399999999998 0.0V-294.0H1519.98V0.0ZM1514.9399999999998 -120.53999999999999V-178.07999999999998H1658.58V-120.53999999999999ZM2059.68 5.04Q2025.2399999999998 5.04 1995.6299999999997 -6.300000000000001Q1966.0199999999998 -17.64 1944.3899999999999 -38.22Q1922.7599999999998 -58.8 1910.79 -86.52Q1898.82 -114.24 1898.82 -147.0Q1898.82 -179.76 1910.79 -207.48Q1922.7599999999998 -235.2 1944.6 -255.78Q1966.4399999999998 -276.36 1995.8399999999997 -287.7Q2025.2399999999998 -299.03999999999996 2059.68 -299.03999999999996Q2094.54 -299.03999999999996 2123.73 -287.7Q2152.92 -276.36 2174.55 -255.99Q2196.18 -235.62 2208.3599999999997 -207.9Q2220.54 -180.18 2220.54 -147.0Q2220.54 -114.24 2208.3599999999997 -86.31Q2196.18 -58.379999999999995 2174.55 -38.01Q2152.92 -17.64 2123.73 -6.300000000000001Q2094.54 5.04 2059.68 5.04ZM2155.8599999999997 67.62Q2138.64 67.62 2123.31 63.84Q2107.98 60.059999999999995 2093.0699999999997 51.66Q2078.16 43.26 2061.99 28.979999999999997Q2045.8199999999997 14.7 2026.9199999999998 -6.3L2098.3199999999997 -24.36Q2109.66 -8.82 2119.3199999999997 0.41999999999999993Q2128.98 9.66 2138.01 13.44Q2147.04 17.22 2157.12 17.22Q2184.0 17.22 2205.0 -4.62L2235.24 31.5Q2205.4199999999996 67.62 2155.8599999999997 67.62ZM2059.68 -52.919999999999995Q2079.4199999999996 -52.919999999999995 2096.0099999999998 -59.64Q2112.6 -66.36 2125.2 -78.96000000000001Q2137.7999999999997 -91.56 2144.7299999999996 -108.99000000000001Q2151.66 -126.42 2151.66 -147.0Q2151.66 -168.0 2144.7299999999996 -185.22Q2137.7999999999997 -202.44 2125.2 -215.04Q2112.6 -227.64 2096.0099999999998 -234.35999999999999Q2079.4199999999996 -241.07999999999998 2059.68 -241.07999999999998Q2039.9399999999998 -241.07999999999998 2023.1399999999999 -234.35999999999999Q2006.34 -227.64 1993.9499999999998 -215.04Q1981.5599999999997 -202.44 1974.6299999999997 -185.22Q1967.6999999999998 -168.0 1967.6999999999998 -147.0Q1967.6999999999998 -126.42 1974.6299999999997 -108.99000000000001Q1981.5599999999997 -91.56 1993.9499999999998 -78.96000000000001Q2006.34 -66.36 2023.1399999999999 -59.64Q2039.9399999999998 -52.919999999999995 2059.68 -52.919999999999995Z" fill="#0A2E1F" transform="translate(220,1603.0)"/><rect x="2650.92" y="1063.0" width="12" height="700" fill="#0A2E1F" opacity=".25"/></svg>